<mxfile host="app.diagrams.net" modified="2023-06-12T21:56:09.657Z" agent="Mozilla/5.0 (X11; Linux x86_64) AppleWebKit/537.36 (KHTML, like Gecko) Chrome/113.0.0.0 Safari/537.36" etag="1UL5ldEhoM3OafWFAQZ1" version="21.3.8" type="google">
  <diagram name="Página-1" id="mJh-G_C4_hxRGMQ1LoT5">
    <mxGraphModel grid="1" page="1" gridSize="10" guides="1" tooltips="1" connect="1" arrows="1" fold="1" pageScale="1" pageWidth="827" pageHeight="1169" math="0" shadow="0">
      <root>
        <mxCell id="0" />
        <mxCell id="1" parent="0" />
        <mxCell id="_UQvhlnsIPJq8ZYPG_fb-2" style="rounded=0;orthogonalLoop=1;jettySize=auto;html=1;startArrow=classic;startFill=1;endArrow=none;endFill=0;dashed=1;" edge="1" parent="1" target="my_kkLxKHLTlXuXmod3Y-32">
          <mxGeometry relative="1" as="geometry">
            <mxPoint x="1110" y="-770" as="sourcePoint" />
          </mxGeometry>
        </mxCell>
        <mxCell id="1UPbLHoVu07urVqdPmsa-1" value="Controlador " style="swimlane;fontStyle=0;align=center;verticalAlign=top;childLayout=stackLayout;horizontal=1;startSize=26;horizontalStack=0;resizeParent=1;resizeLast=0;collapsible=1;marginBottom=0;rounded=0;shadow=0;strokeWidth=1;" vertex="1" parent="1">
          <mxGeometry x="1021" y="-860" width="160" height="90" as="geometry">
            <mxRectangle x="580" y="-320" width="160" height="26" as="alternateBounds" />
          </mxGeometry>
        </mxCell>
        <mxCell id="1UPbLHoVu07urVqdPmsa-4" value="" style="line;html=1;strokeWidth=1;align=left;verticalAlign=middle;spacingTop=-1;spacingLeft=3;spacingRight=3;rotatable=0;labelPosition=right;points=[];portConstraint=eastwest;" vertex="1" parent="1UPbLHoVu07urVqdPmsa-1">
          <mxGeometry y="26" width="160" height="8" as="geometry" />
        </mxCell>
        <mxCell id="1UPbLHoVu07urVqdPmsa-5" value="Modelo" style="swimlane;fontStyle=0;align=center;verticalAlign=top;childLayout=stackLayout;horizontal=1;startSize=26;horizontalStack=0;resizeParent=1;resizeLast=0;collapsible=1;marginBottom=0;rounded=0;shadow=0;strokeWidth=1;" vertex="1" parent="1">
          <mxGeometry x="1760" y="-870" width="160" height="90" as="geometry">
            <mxRectangle x="320" y="-320" width="160" height="26" as="alternateBounds" />
          </mxGeometry>
        </mxCell>
        <mxCell id="1UPbLHoVu07urVqdPmsa-8" value="" style="line;html=1;strokeWidth=1;align=left;verticalAlign=middle;spacingTop=-1;spacingLeft=3;spacingRight=3;rotatable=0;labelPosition=right;points=[];portConstraint=eastwest;" vertex="1" parent="1UPbLHoVu07urVqdPmsa-5">
          <mxGeometry y="26" width="160" height="8" as="geometry" />
        </mxCell>
        <mxCell id="q9EmKfXzJTqXkolpjUYO-2" value="Vista" style="swimlane;fontStyle=0;align=center;verticalAlign=top;childLayout=stackLayout;horizontal=1;startSize=26;horizontalStack=0;resizeParent=1;resizeLast=0;collapsible=1;marginBottom=0;rounded=0;shadow=0;strokeWidth=1;" vertex="1" parent="1">
          <mxGeometry x="270" y="-850" width="160" height="90" as="geometry">
            <mxRectangle x="550" y="140" width="160" height="26" as="alternateBounds" />
          </mxGeometry>
        </mxCell>
        <mxCell id="q9EmKfXzJTqXkolpjUYO-5" value="" style="line;html=1;strokeWidth=1;align=left;verticalAlign=middle;spacingTop=-1;spacingLeft=3;spacingRight=3;rotatable=0;labelPosition=right;points=[];portConstraint=eastwest;" vertex="1" parent="q9EmKfXzJTqXkolpjUYO-2">
          <mxGeometry y="26" width="160" height="8" as="geometry" />
        </mxCell>
        <mxCell id="1UPbLHoVu07urVqdPmsa-16" value="Tablon" style="swimlane;fontStyle=0;childLayout=stackLayout;horizontal=1;startSize=26;fillColor=none;horizontalStack=0;resizeParent=1;resizeParentMax=0;resizeLast=0;collapsible=1;marginBottom=0;whiteSpace=wrap;html=1;" vertex="1" parent="1">
          <mxGeometry x="180" y="-578" width="140" height="52" as="geometry" />
        </mxCell>
        <mxCell id="1UPbLHoVu07urVqdPmsa-20" value="Chat" style="swimlane;fontStyle=0;childLayout=stackLayout;horizontal=1;startSize=26;fillColor=none;horizontalStack=0;resizeParent=1;resizeParentMax=0;resizeLast=0;collapsible=1;marginBottom=0;whiteSpace=wrap;html=1;" vertex="1" parent="1">
          <mxGeometry x="350" y="-578" width="140" height="52" as="geometry" />
        </mxCell>
        <mxCell id="1UPbLHoVu07urVqdPmsa-24" value="Perfil" style="swimlane;fontStyle=0;childLayout=stackLayout;horizontal=1;startSize=26;fillColor=none;horizontalStack=0;resizeParent=1;resizeParentMax=0;resizeLast=0;collapsible=1;marginBottom=0;whiteSpace=wrap;html=1;" vertex="1" parent="1">
          <mxGeometry x="510" y="-578" width="140" height="52" as="geometry" />
        </mxCell>
        <mxCell id="1UPbLHoVu07urVqdPmsa-28" value="" style="html=1;verticalAlign=bottom;endArrow=open;dashed=1;endSize=8;elbow=vertical;rounded=0;exitX=0.5;exitY=0;exitDx=0;exitDy=0;entryX=0.75;entryY=1;entryDx=0;entryDy=0;" edge="1" parent="1" source="1UPbLHoVu07urVqdPmsa-24" target="q9EmKfXzJTqXkolpjUYO-2">
          <mxGeometry x="-0.0498" y="-11" relative="1" as="geometry">
            <mxPoint x="710" y="-590" as="sourcePoint" />
            <mxPoint x="360" y="-760" as="targetPoint" />
            <mxPoint as="offset" />
          </mxGeometry>
        </mxCell>
        <mxCell id="1UPbLHoVu07urVqdPmsa-29" value="" style="html=1;verticalAlign=bottom;endArrow=open;dashed=1;endSize=8;elbow=vertical;rounded=0;exitX=0.5;exitY=0;exitDx=0;exitDy=0;entryX=0.25;entryY=1;entryDx=0;entryDy=0;" edge="1" parent="1" source="1UPbLHoVu07urVqdPmsa-16" target="q9EmKfXzJTqXkolpjUYO-2">
          <mxGeometry relative="1" as="geometry">
            <mxPoint x="710" y="-590" as="sourcePoint" />
            <mxPoint x="340" y="-760" as="targetPoint" />
          </mxGeometry>
        </mxCell>
        <mxCell id="1UPbLHoVu07urVqdPmsa-30" value="" style="html=1;verticalAlign=bottom;endArrow=open;dashed=1;endSize=8;elbow=vertical;rounded=0;entryX=0.5;entryY=1;entryDx=0;entryDy=0;exitX=0.5;exitY=0;exitDx=0;exitDy=0;" edge="1" parent="1" source="1UPbLHoVu07urVqdPmsa-20" target="q9EmKfXzJTqXkolpjUYO-2">
          <mxGeometry relative="1" as="geometry">
            <mxPoint x="710" y="-590" as="sourcePoint" />
            <mxPoint x="630" y="-590" as="targetPoint" />
          </mxGeometry>
        </mxCell>
        <mxCell id="1UPbLHoVu07urVqdPmsa-31" value="Ajustes" style="swimlane;fontStyle=0;childLayout=stackLayout;horizontal=1;startSize=26;fillColor=none;horizontalStack=0;resizeParent=1;resizeParentMax=0;resizeLast=0;collapsible=1;marginBottom=0;whiteSpace=wrap;html=1;" vertex="1" parent="1">
          <mxGeometry x="20" y="-578" width="140" height="52" as="geometry" />
        </mxCell>
        <mxCell id="1UPbLHoVu07urVqdPmsa-35" value="" style="html=1;verticalAlign=bottom;endArrow=open;dashed=1;endSize=8;elbow=vertical;rounded=0;exitX=0.5;exitY=0;exitDx=0;exitDy=0;" edge="1" parent="1" source="1UPbLHoVu07urVqdPmsa-31">
          <mxGeometry x="0.0004" relative="1" as="geometry">
            <mxPoint x="710" y="-590" as="sourcePoint" />
            <mxPoint x="290" y="-760" as="targetPoint" />
            <mxPoint as="offset" />
          </mxGeometry>
        </mxCell>
        <mxCell id="1UPbLHoVu07urVqdPmsa-115" value="Usuario" style="swimlane;fontStyle=0;align=center;verticalAlign=top;childLayout=stackLayout;horizontal=1;startSize=26;horizontalStack=0;resizeParent=1;resizeLast=0;collapsible=1;marginBottom=0;rounded=0;shadow=0;strokeWidth=1;" vertex="1" parent="1">
          <mxGeometry x="1760" y="-606" width="160" height="90" as="geometry">
            <mxRectangle x="550" y="140" width="160" height="26" as="alternateBounds" />
          </mxGeometry>
        </mxCell>
        <mxCell id="1UPbLHoVu07urVqdPmsa-116" value="-Nombre: String" style="text;align=left;verticalAlign=top;spacingLeft=4;spacingRight=4;overflow=hidden;rotatable=0;points=[[0,0.5],[1,0.5]];portConstraint=eastwest;" vertex="1" parent="1UPbLHoVu07urVqdPmsa-115">
          <mxGeometry y="26" width="160" height="26" as="geometry" />
        </mxCell>
        <mxCell id="1UPbLHoVu07urVqdPmsa-117" value="-Constraseña: String" style="text;align=left;verticalAlign=top;spacingLeft=4;spacingRight=4;overflow=hidden;rotatable=0;points=[[0,0.5],[1,0.5]];portConstraint=eastwest;rounded=0;shadow=0;html=0;" vertex="1" parent="1UPbLHoVu07urVqdPmsa-115">
          <mxGeometry y="52" width="160" height="26" as="geometry" />
        </mxCell>
        <mxCell id="1UPbLHoVu07urVqdPmsa-118" value="" style="line;html=1;strokeWidth=1;align=left;verticalAlign=middle;spacingTop=-1;spacingLeft=3;spacingRight=3;rotatable=0;labelPosition=right;points=[];portConstraint=eastwest;" vertex="1" parent="1UPbLHoVu07urVqdPmsa-115">
          <mxGeometry y="78" width="160" height="8" as="geometry" />
        </mxCell>
        <mxCell id="1UPbLHoVu07urVqdPmsa-120" value="" style="html=1;verticalAlign=bottom;endArrow=open;dashed=1;endSize=8;edgeStyle=elbowEdgeStyle;elbow=vertical;curved=0;rounded=0;exitX=0.5;exitY=0;exitDx=0;exitDy=0;" edge="1" parent="1" source="1UPbLHoVu07urVqdPmsa-115">
          <mxGeometry relative="1" as="geometry">
            <mxPoint x="1600" y="-540" as="sourcePoint" />
            <mxPoint x="1840" y="-780" as="targetPoint" />
          </mxGeometry>
        </mxCell>
        <mxCell id="sgyqIZspEKLemj1IkqvJ-2" style="rounded=0;orthogonalLoop=1;jettySize=auto;html=1;exitX=1;exitY=1;exitDx=0;exitDy=0;entryX=0.013;entryY=0.075;entryDx=0;entryDy=0;entryPerimeter=0;" edge="1" parent="1" source="1UPbLHoVu07urVqdPmsa-121" target="1UPbLHoVu07urVqdPmsa-175">
          <mxGeometry relative="1" as="geometry" />
        </mxCell>
        <mxCell id="jJyeZY-O7vn-Lm1w7ied-1" style="edgeStyle=orthogonalEdgeStyle;rounded=0;orthogonalLoop=1;jettySize=auto;html=1;exitX=0.5;exitY=1;exitDx=0;exitDy=0;entryX=0.375;entryY=0.009;entryDx=0;entryDy=0;entryPerimeter=0;endArrow=none;endFill=0;" edge="1" parent="1" source="1UPbLHoVu07urVqdPmsa-121" target="1UPbLHoVu07urVqdPmsa-166">
          <mxGeometry relative="1" as="geometry" />
        </mxCell>
        <mxCell id="1UPbLHoVu07urVqdPmsa-121" value="Persona" style="swimlane;fontStyle=2;align=center;verticalAlign=top;childLayout=stackLayout;horizontal=1;startSize=26;horizontalStack=0;resizeParent=1;resizeLast=0;collapsible=1;marginBottom=0;rounded=0;shadow=0;strokeWidth=1;" vertex="1" parent="1">
          <mxGeometry x="1970" y="-400" width="160" height="290" as="geometry">
            <mxRectangle x="1161" y="256" width="160" height="26" as="alternateBounds" />
          </mxGeometry>
        </mxCell>
        <mxCell id="1UPbLHoVu07urVqdPmsa-122" style="edgeStyle=orthogonalEdgeStyle;rounded=0;orthogonalLoop=1;jettySize=auto;html=1;exitX=0;exitY=0.5;exitDx=0;exitDy=0;entryX=0.001;entryY=0.88;entryDx=0;entryDy=0;entryPerimeter=0;" edge="1" parent="1UPbLHoVu07urVqdPmsa-121" source="1UPbLHoVu07urVqdPmsa-123" target="1UPbLHoVu07urVqdPmsa-127">
          <mxGeometry relative="1" as="geometry">
            <mxPoint x="-81" y="164" as="targetPoint" />
            <Array as="points">
              <mxPoint x="-80" y="39" />
              <mxPoint x="-80" y="153" />
            </Array>
          </mxGeometry>
        </mxCell>
        <mxCell id="1UPbLHoVu07urVqdPmsa-123" value="-Nombre: String" style="text;align=left;verticalAlign=top;spacingLeft=4;spacingRight=4;overflow=hidden;rotatable=0;points=[[0,0.5],[1,0.5]];portConstraint=eastwest;" vertex="1" parent="1UPbLHoVu07urVqdPmsa-121">
          <mxGeometry y="26" width="160" height="26" as="geometry" />
        </mxCell>
        <mxCell id="1UPbLHoVu07urVqdPmsa-124" value="-Apellido: String" style="text;align=left;verticalAlign=top;spacingLeft=4;spacingRight=4;overflow=hidden;rotatable=0;points=[[0,0.5],[1,0.5]];portConstraint=eastwest;rounded=0;shadow=0;html=0;" vertex="1" parent="1UPbLHoVu07urVqdPmsa-121">
          <mxGeometry y="52" width="160" height="26" as="geometry" />
        </mxCell>
        <mxCell id="1UPbLHoVu07urVqdPmsa-125" value="-Email: String" style="text;align=left;verticalAlign=top;spacingLeft=4;spacingRight=4;overflow=hidden;rotatable=0;points=[[0,0.5],[1,0.5]];portConstraint=eastwest;rounded=0;shadow=0;html=0;" vertex="1" parent="1UPbLHoVu07urVqdPmsa-121">
          <mxGeometry y="78" width="160" height="26" as="geometry" />
        </mxCell>
        <mxCell id="1UPbLHoVu07urVqdPmsa-126" value="-Telefono: Long" style="text;align=left;verticalAlign=top;spacingLeft=4;spacingRight=4;overflow=hidden;rotatable=0;points=[[0,0.5],[1,0.5]];portConstraint=eastwest;rounded=0;shadow=0;html=0;" vertex="1" parent="1UPbLHoVu07urVqdPmsa-121">
          <mxGeometry y="104" width="160" height="26" as="geometry" />
        </mxCell>
        <mxCell id="1UPbLHoVu07urVqdPmsa-127" value="-Admin: Boolean" style="text;align=left;verticalAlign=top;spacingLeft=4;spacingRight=4;overflow=hidden;rotatable=0;points=[[0,0.5],[1,0.5]];portConstraint=eastwest;rounded=0;shadow=0;html=0;" vertex="1" parent="1UPbLHoVu07urVqdPmsa-121">
          <mxGeometry y="130" width="160" height="26" as="geometry" />
        </mxCell>
        <mxCell id="1UPbLHoVu07urVqdPmsa-128" value="-Biografia: String" style="text;align=left;verticalAlign=top;spacingLeft=4;spacingRight=4;overflow=hidden;rotatable=0;points=[[0,0.5],[1,0.5]];portConstraint=eastwest;rounded=0;shadow=0;html=0;" vertex="1" parent="1UPbLHoVu07urVqdPmsa-121">
          <mxGeometry y="156" width="160" height="26" as="geometry" />
        </mxCell>
        <mxCell id="1UPbLHoVu07urVqdPmsa-129" value="-Email: String" style="text;align=left;verticalAlign=top;spacingLeft=4;spacingRight=4;overflow=hidden;rotatable=0;points=[[0,0.5],[1,0.5]];portConstraint=eastwest;rounded=0;shadow=0;html=0;" vertex="1" parent="1UPbLHoVu07urVqdPmsa-121">
          <mxGeometry y="182" width="160" height="26" as="geometry" />
        </mxCell>
        <mxCell id="1UPbLHoVu07urVqdPmsa-130" value="Imagen: Binary" style="text;align=left;verticalAlign=top;spacingLeft=4;spacingRight=4;overflow=hidden;rotatable=0;points=[[0,0.5],[1,0.5]];portConstraint=eastwest;rounded=0;shadow=0;html=0;" vertex="1" parent="1UPbLHoVu07urVqdPmsa-121">
          <mxGeometry y="208" width="160" height="26" as="geometry" />
        </mxCell>
        <mxCell id="1UPbLHoVu07urVqdPmsa-131" value="" style="line;html=1;strokeWidth=1;align=left;verticalAlign=middle;spacingTop=-1;spacingLeft=3;spacingRight=3;rotatable=0;labelPosition=right;points=[];portConstraint=eastwest;" vertex="1" parent="1UPbLHoVu07urVqdPmsa-121">
          <mxGeometry y="234" width="160" height="56" as="geometry" />
        </mxCell>
        <mxCell id="1UPbLHoVu07urVqdPmsa-132" value="Admin" style="swimlane;fontStyle=0;align=center;verticalAlign=top;childLayout=stackLayout;horizontal=1;startSize=26;horizontalStack=0;resizeParent=1;resizeLast=0;collapsible=1;marginBottom=0;rounded=0;shadow=0;strokeWidth=1;" vertex="1" parent="1">
          <mxGeometry x="1650" y="-380" width="160" height="60" as="geometry">
            <mxRectangle x="810" y="270" width="160" height="26" as="alternateBounds" />
          </mxGeometry>
        </mxCell>
        <mxCell id="1UPbLHoVu07urVqdPmsa-133" value="" style="line;html=1;strokeWidth=1;align=left;verticalAlign=middle;spacingTop=-1;spacingLeft=3;spacingRight=3;rotatable=0;labelPosition=right;points=[];portConstraint=eastwest;" vertex="1" parent="1UPbLHoVu07urVqdPmsa-132">
          <mxGeometry y="26" width="160" height="8" as="geometry" />
        </mxCell>
        <mxCell id="1UPbLHoVu07urVqdPmsa-134" value="" style="endArrow=block;endSize=10;endFill=0;shadow=0;strokeWidth=1;rounded=0;edgeStyle=elbowEdgeStyle;elbow=vertical;" edge="1" parent="1">
          <mxGeometry width="160" relative="1" as="geometry">
            <mxPoint x="2030" y="-400" as="sourcePoint" />
            <mxPoint x="1840" y="-516" as="targetPoint" />
            <Array as="points">
              <mxPoint x="1940" y="-456" />
            </Array>
          </mxGeometry>
        </mxCell>
        <mxCell id="1UPbLHoVu07urVqdPmsa-135" value="" style="endArrow=block;endSize=10;endFill=0;shadow=0;strokeWidth=1;rounded=0;edgeStyle=elbowEdgeStyle;elbow=vertical;exitX=0.556;exitY=-0.033;exitDx=0;exitDy=0;exitPerimeter=0;" edge="1" parent="1" source="1UPbLHoVu07urVqdPmsa-132">
          <mxGeometry width="160" relative="1" as="geometry">
            <mxPoint x="1740" y="-386" as="sourcePoint" />
            <mxPoint x="1840" y="-516" as="targetPoint" />
            <Array as="points">
              <mxPoint x="1800" y="-456" />
            </Array>
          </mxGeometry>
        </mxCell>
        <mxCell id="1UPbLHoVu07urVqdPmsa-136" value="interactua con" style="text;html=1;strokeColor=none;fillColor=none;align=center;verticalAlign=middle;whiteSpace=wrap;rounded=0;" vertex="1" parent="1">
          <mxGeometry x="1900" y="-318" width="60" height="30" as="geometry" />
        </mxCell>
        <mxCell id="1UPbLHoVu07urVqdPmsa-137" value="0...*" style="text;html=1;strokeColor=none;fillColor=none;align=center;verticalAlign=middle;whiteSpace=wrap;rounded=0;" vertex="1" parent="1">
          <mxGeometry x="1919" y="-270" width="60" height="30" as="geometry" />
        </mxCell>
        <mxCell id="1UPbLHoVu07urVqdPmsa-138" value="1" style="text;html=1;strokeColor=none;fillColor=none;align=center;verticalAlign=middle;whiteSpace=wrap;rounded=0;" vertex="1" parent="1">
          <mxGeometry x="1919" y="-360" width="60" height="30" as="geometry" />
        </mxCell>
        <mxCell id="1UPbLHoVu07urVqdPmsa-156" value="Mensaje privado" style="swimlane;fontStyle=0;align=center;verticalAlign=top;childLayout=stackLayout;horizontal=1;startSize=26;horizontalStack=0;resizeParent=1;resizeLast=0;collapsible=1;marginBottom=0;rounded=0;shadow=0;strokeWidth=1;" vertex="1" parent="1">
          <mxGeometry x="2270" y="-270" width="150" height="130" as="geometry">
            <mxRectangle x="130" y="380" width="160" height="26" as="alternateBounds" />
          </mxGeometry>
        </mxCell>
        <mxCell id="1UPbLHoVu07urVqdPmsa-157" value="Texto: String" style="text;align=left;verticalAlign=top;spacingLeft=4;spacingRight=4;overflow=hidden;rotatable=0;points=[[0,0.5],[1,0.5]];portConstraint=eastwest;" vertex="1" parent="1UPbLHoVu07urVqdPmsa-156">
          <mxGeometry y="26" width="150" height="24" as="geometry" />
        </mxCell>
        <mxCell id="1UPbLHoVu07urVqdPmsa-158" value="Fecha: Date" style="text;align=left;verticalAlign=top;spacingLeft=4;spacingRight=4;overflow=hidden;rotatable=0;points=[[0,0.5],[1,0.5]];portConstraint=eastwest;" vertex="1" parent="1UPbLHoVu07urVqdPmsa-156">
          <mxGeometry y="50" width="150" height="24" as="geometry" />
        </mxCell>
        <mxCell id="1UPbLHoVu07urVqdPmsa-159" value="" style="line;html=1;strokeWidth=1;align=left;verticalAlign=middle;spacingTop=-1;spacingLeft=3;spacingRight=3;rotatable=0;labelPosition=right;points=[];portConstraint=eastwest;" vertex="1" parent="1UPbLHoVu07urVqdPmsa-156">
          <mxGeometry y="74" width="150" height="56" as="geometry" />
        </mxCell>
        <mxCell id="1UPbLHoVu07urVqdPmsa-161" value="1" style="text;html=1;strokeColor=none;fillColor=none;align=center;verticalAlign=middle;whiteSpace=wrap;rounded=0;" vertex="1" parent="1">
          <mxGeometry x="2120" y="-270" width="60" height="30" as="geometry" />
        </mxCell>
        <mxCell id="1UPbLHoVu07urVqdPmsa-165" value="0...*" style="text;html=1;strokeColor=none;fillColor=none;align=center;verticalAlign=middle;whiteSpace=wrap;rounded=0;" vertex="1" parent="1">
          <mxGeometry x="2220" y="-270" width="60" height="30" as="geometry" />
        </mxCell>
        <mxCell id="sgyqIZspEKLemj1IkqvJ-3" style="rounded=0;orthogonalLoop=1;jettySize=auto;html=1;entryX=1;entryY=0;entryDx=0;entryDy=0;" edge="1" parent="1" target="1UPbLHoVu07urVqdPmsa-166">
          <mxGeometry relative="1" as="geometry">
            <mxPoint x="2260" y="10" as="sourcePoint" />
            <mxPoint x="2140" y="10" as="targetPoint" />
          </mxGeometry>
        </mxCell>
        <mxCell id="1UPbLHoVu07urVqdPmsa-166" value="Mensaje publico" style="swimlane;fontStyle=0;align=center;verticalAlign=top;childLayout=stackLayout;horizontal=1;startSize=26;horizontalStack=0;resizeParent=1;resizeLast=0;collapsible=1;marginBottom=0;rounded=0;shadow=0;strokeWidth=1;" vertex="1" parent="1">
          <mxGeometry x="1990" y="8" width="160" height="214" as="geometry">
            <mxRectangle x="360" y="410" width="170" height="26" as="alternateBounds" />
          </mxGeometry>
        </mxCell>
        <mxCell id="1UPbLHoVu07urVqdPmsa-167" value="Texto: String" style="text;align=left;verticalAlign=top;spacingLeft=4;spacingRight=4;overflow=hidden;rotatable=0;points=[[0,0.5],[1,0.5]];portConstraint=eastwest;" vertex="1" parent="1UPbLHoVu07urVqdPmsa-166">
          <mxGeometry y="26" width="160" height="26" as="geometry" />
        </mxCell>
        <mxCell id="1UPbLHoVu07urVqdPmsa-168" value="Fecha: Date" style="text;align=left;verticalAlign=top;spacingLeft=4;spacingRight=4;overflow=hidden;rotatable=0;points=[[0,0.5],[1,0.5]];portConstraint=eastwest;rounded=0;shadow=0;html=0;" vertex="1" parent="1UPbLHoVu07urVqdPmsa-166">
          <mxGeometry y="52" width="160" height="26" as="geometry" />
        </mxCell>
        <mxCell id="1UPbLHoVu07urVqdPmsa-169" value="Like: Integer" style="text;align=left;verticalAlign=top;spacingLeft=4;spacingRight=4;overflow=hidden;rotatable=0;points=[[0,0.5],[1,0.5]];portConstraint=eastwest;rounded=0;shadow=0;html=0;" vertex="1" parent="1UPbLHoVu07urVqdPmsa-166">
          <mxGeometry y="78" width="160" height="26" as="geometry" />
        </mxCell>
        <mxCell id="1UPbLHoVu07urVqdPmsa-170" value="Republicacion: Integer" style="text;align=left;verticalAlign=top;spacingLeft=4;spacingRight=4;overflow=hidden;rotatable=0;points=[[0,0.5],[1,0.5]];portConstraint=eastwest;rounded=0;shadow=0;html=0;" vertex="1" parent="1UPbLHoVu07urVqdPmsa-166">
          <mxGeometry y="104" width="160" height="26" as="geometry" />
        </mxCell>
        <mxCell id="1UPbLHoVu07urVqdPmsa-171" value="" style="line;html=1;strokeWidth=1;align=left;verticalAlign=middle;spacingTop=-1;spacingLeft=3;spacingRight=3;rotatable=0;labelPosition=right;points=[];portConstraint=eastwest;" vertex="1" parent="1UPbLHoVu07urVqdPmsa-166">
          <mxGeometry y="130" width="160" height="58" as="geometry" />
        </mxCell>
        <mxCell id="1UPbLHoVu07urVqdPmsa-172" value="Tags" style="swimlane;fontStyle=0;align=center;verticalAlign=top;childLayout=stackLayout;horizontal=1;startSize=26;horizontalStack=0;resizeParent=1;resizeLast=0;collapsible=1;marginBottom=0;rounded=0;shadow=0;strokeWidth=1;" vertex="1" parent="1">
          <mxGeometry x="1720" y="-42" width="160" height="90" as="geometry">
            <mxRectangle x="110" y="430" width="160" height="26" as="alternateBounds" />
          </mxGeometry>
        </mxCell>
        <mxCell id="1UPbLHoVu07urVqdPmsa-173" value="-Tag: String" style="text;align=left;verticalAlign=top;spacingLeft=4;spacingRight=4;overflow=hidden;rotatable=0;points=[[0,0.5],[1,0.5]];portConstraint=eastwest;" vertex="1" parent="1UPbLHoVu07urVqdPmsa-172">
          <mxGeometry y="26" width="160" height="26" as="geometry" />
        </mxCell>
        <mxCell id="1UPbLHoVu07urVqdPmsa-174" value="" style="line;html=1;strokeWidth=1;align=left;verticalAlign=middle;spacingTop=-1;spacingLeft=3;spacingRight=3;rotatable=0;labelPosition=right;points=[];portConstraint=eastwest;" vertex="1" parent="1UPbLHoVu07urVqdPmsa-172">
          <mxGeometry y="52" width="160" height="8" as="geometry" />
        </mxCell>
        <mxCell id="1UPbLHoVu07urVqdPmsa-175" value="Republicacion" style="swimlane;fontStyle=0;align=center;verticalAlign=top;childLayout=stackLayout;horizontal=1;startSize=26;horizontalStack=0;resizeParent=1;resizeLast=0;collapsible=1;marginBottom=0;rounded=0;shadow=0;strokeWidth=1;" vertex="1" parent="1">
          <mxGeometry x="2265" y="-92" width="160" height="120" as="geometry">
            <mxRectangle x="550" y="140" width="160" height="26" as="alternateBounds" />
          </mxGeometry>
        </mxCell>
        <mxCell id="1UPbLHoVu07urVqdPmsa-176" value="-Fecha: Date" style="text;align=left;verticalAlign=top;spacingLeft=4;spacingRight=4;overflow=hidden;rotatable=0;points=[[0,0.5],[1,0.5]];portConstraint=eastwest;" vertex="1" parent="1UPbLHoVu07urVqdPmsa-175">
          <mxGeometry y="26" width="160" height="26" as="geometry" />
        </mxCell>
        <mxCell id="1UPbLHoVu07urVqdPmsa-177" value="" style="line;html=1;strokeWidth=1;align=left;verticalAlign=middle;spacingTop=-1;spacingLeft=3;spacingRight=3;rotatable=0;labelPosition=right;points=[];portConstraint=eastwest;" vertex="1" parent="1UPbLHoVu07urVqdPmsa-175">
          <mxGeometry y="52" width="160" height="38" as="geometry" />
        </mxCell>
        <mxCell id="1UPbLHoVu07urVqdPmsa-180" value="Comentario" style="swimlane;fontStyle=0;align=center;verticalAlign=top;childLayout=stackLayout;horizontal=1;startSize=26;horizontalStack=0;resizeParent=1;resizeLast=0;collapsible=1;marginBottom=0;rounded=0;shadow=0;strokeWidth=1;" vertex="1" parent="1">
          <mxGeometry x="1720" y="108" width="160" height="110" as="geometry">
            <mxRectangle x="110" y="430" width="160" height="26" as="alternateBounds" />
          </mxGeometry>
        </mxCell>
        <mxCell id="1UPbLHoVu07urVqdPmsa-181" value="-Tag: String" style="text;align=left;verticalAlign=top;spacingLeft=4;spacingRight=4;overflow=hidden;rotatable=0;points=[[0,0.5],[1,0.5]];portConstraint=eastwest;" vertex="1" parent="1UPbLHoVu07urVqdPmsa-180">
          <mxGeometry y="26" width="160" height="26" as="geometry" />
        </mxCell>
        <mxCell id="1UPbLHoVu07urVqdPmsa-182" value="-Fecha: Date" style="text;align=left;verticalAlign=top;spacingLeft=4;spacingRight=4;overflow=hidden;rotatable=0;points=[[0,0.5],[1,0.5]];portConstraint=eastwest;" vertex="1" parent="1UPbLHoVu07urVqdPmsa-180">
          <mxGeometry y="52" width="160" height="26" as="geometry" />
        </mxCell>
        <mxCell id="1UPbLHoVu07urVqdPmsa-183" value="" style="line;html=1;strokeWidth=1;align=left;verticalAlign=middle;spacingTop=-1;spacingLeft=3;spacingRight=3;rotatable=0;labelPosition=right;points=[];portConstraint=eastwest;" vertex="1" parent="1UPbLHoVu07urVqdPmsa-180">
          <mxGeometry y="78" width="160" height="8" as="geometry" />
        </mxCell>
        <mxCell id="1UPbLHoVu07urVqdPmsa-184" value="" style="endArrow=diamondThin;endFill=1;endSize=24;html=1;rounded=0;entryX=0;entryY=0.5;entryDx=0;entryDy=0;exitX=1.01;exitY=0.829;exitDx=0;exitDy=0;exitPerimeter=0;" edge="1" parent="1" source="1UPbLHoVu07urVqdPmsa-173" target="1UPbLHoVu07urVqdPmsa-168">
          <mxGeometry width="160" relative="1" as="geometry">
            <mxPoint x="1800" y="38" as="sourcePoint" />
            <mxPoint x="1960" y="38" as="targetPoint" />
          </mxGeometry>
        </mxCell>
        <mxCell id="1UPbLHoVu07urVqdPmsa-185" value="" style="endArrow=diamondThin;endFill=1;endSize=24;html=1;rounded=0;entryX=-0.004;entryY=0.284;entryDx=0;entryDy=0;entryPerimeter=0;exitX=1;exitY=0.5;exitDx=0;exitDy=0;" edge="1" parent="1" source="1UPbLHoVu07urVqdPmsa-182" target="1UPbLHoVu07urVqdPmsa-169">
          <mxGeometry width="160" relative="1" as="geometry">
            <mxPoint x="1800" y="38" as="sourcePoint" />
            <mxPoint x="1960" y="38" as="targetPoint" />
          </mxGeometry>
        </mxCell>
        <mxCell id="1UPbLHoVu07urVqdPmsa-186" value="etiqueta" style="text;html=1;strokeColor=none;fillColor=none;align=center;verticalAlign=middle;whiteSpace=wrap;rounded=0;" vertex="1" parent="1">
          <mxGeometry x="1910" y="-2" width="60" height="30" as="geometry" />
        </mxCell>
        <mxCell id="1UPbLHoVu07urVqdPmsa-187" value="comenta" style="text;html=1;strokeColor=none;fillColor=none;align=center;verticalAlign=middle;whiteSpace=wrap;rounded=0;" vertex="1" parent="1">
          <mxGeometry x="1890" y="98" width="60" height="30" as="geometry" />
        </mxCell>
        <mxCell id="1UPbLHoVu07urVqdPmsa-189" value="0...*" style="text;html=1;strokeColor=none;fillColor=none;align=center;verticalAlign=middle;whiteSpace=wrap;rounded=0;" vertex="1" parent="1">
          <mxGeometry x="2220" y="-122" width="60" height="30" as="geometry" />
        </mxCell>
        <mxCell id="1UPbLHoVu07urVqdPmsa-190" value="0...*" style="text;html=1;strokeColor=none;fillColor=none;align=center;verticalAlign=middle;whiteSpace=wrap;rounded=0;" vertex="1" parent="1">
          <mxGeometry x="2210" y="-17" width="60" height="30" as="geometry" />
        </mxCell>
        <mxCell id="1UPbLHoVu07urVqdPmsa-192" value="1" style="text;html=1;strokeColor=none;fillColor=none;align=center;verticalAlign=middle;whiteSpace=wrap;rounded=0;" vertex="1" parent="1">
          <mxGeometry x="1940" y="28" width="60" height="30" as="geometry" />
        </mxCell>
        <mxCell id="1UPbLHoVu07urVqdPmsa-193" value="0...*" style="text;html=1;strokeColor=none;fillColor=none;align=center;verticalAlign=middle;whiteSpace=wrap;rounded=0;" vertex="1" parent="1">
          <mxGeometry x="1871" y="-17" width="60" height="30" as="geometry" />
        </mxCell>
        <mxCell id="1UPbLHoVu07urVqdPmsa-194" value="1" style="text;html=1;strokeColor=none;fillColor=none;align=center;verticalAlign=middle;whiteSpace=wrap;rounded=0;" vertex="1" parent="1">
          <mxGeometry x="1930" y="78" width="60" height="30" as="geometry" />
        </mxCell>
        <mxCell id="1UPbLHoVu07urVqdPmsa-195" value="0...*" style="text;html=1;strokeColor=none;fillColor=none;align=center;verticalAlign=middle;whiteSpace=wrap;rounded=0;" vertex="1" parent="1">
          <mxGeometry x="1870" y="128" width="60" height="30" as="geometry" />
        </mxCell>
        <mxCell id="1UPbLHoVu07urVqdPmsa-197" value="Observer" style="swimlane;fontStyle=0;align=center;verticalAlign=top;childLayout=stackLayout;horizontal=1;startSize=26;horizontalStack=0;resizeParent=1;resizeLast=0;collapsible=1;marginBottom=0;rounded=0;shadow=0;strokeWidth=1;" vertex="1" parent="1">
          <mxGeometry x="1010" y="-1140" width="160" height="90" as="geometry">
            <mxRectangle x="320" y="-320" width="160" height="26" as="alternateBounds" />
          </mxGeometry>
        </mxCell>
        <mxCell id="1UPbLHoVu07urVqdPmsa-200" value="" style="line;html=1;strokeWidth=1;align=left;verticalAlign=middle;spacingTop=-1;spacingLeft=3;spacingRight=3;rotatable=0;labelPosition=right;points=[];portConstraint=eastwest;" vertex="1" parent="1UPbLHoVu07urVqdPmsa-197">
          <mxGeometry y="26" width="160" height="8" as="geometry" />
        </mxCell>
        <mxCell id="1UPbLHoVu07urVqdPmsa-202" value="" style="html=1;verticalAlign=bottom;endArrow=open;dashed=1;endSize=8;edgeStyle=elbowEdgeStyle;elbow=vertical;curved=0;rounded=0;exitX=0.428;exitY=0.028;exitDx=0;exitDy=0;entryX=0.5;entryY=1;entryDx=0;entryDy=0;exitPerimeter=0;" edge="1" parent="1" source="1UPbLHoVu07urVqdPmsa-1" target="1UPbLHoVu07urVqdPmsa-197">
          <mxGeometry relative="1" as="geometry">
            <mxPoint x="1050" y="-1110" as="sourcePoint" />
            <mxPoint x="980" y="-1050" as="targetPoint" />
            <Array as="points">
              <mxPoint x="1090" y="-880" />
              <mxPoint x="1090" y="-900" />
              <mxPoint x="1080" y="-930" />
              <mxPoint x="1090" y="-980" />
              <mxPoint x="1120" y="-1000" />
              <mxPoint x="1010" y="-950" />
              <mxPoint x="1140" y="-1040" />
              <mxPoint x="1280" y="-1233" />
            </Array>
          </mxGeometry>
        </mxCell>
        <mxCell id="1UPbLHoVu07urVqdPmsa-205" value="" style="html=1;verticalAlign=bottom;endArrow=open;dashed=1;endSize=8;edgeStyle=elbowEdgeStyle;elbow=vertical;curved=0;rounded=0;exitX=0.5;exitY=0;exitDx=0;exitDy=0;" edge="1" parent="1" source="1UPbLHoVu07urVqdPmsa-5">
          <mxGeometry relative="1" as="geometry">
            <mxPoint x="2630" y="-1020" as="sourcePoint" />
            <mxPoint x="1180" y="-1090" as="targetPoint" />
            <Array as="points">
              <mxPoint x="1210" y="-1090" />
              <mxPoint x="1490" y="-1075" />
            </Array>
          </mxGeometry>
        </mxCell>
        <mxCell id="1UPbLHoVu07urVqdPmsa-207" value="" style="html=1;verticalAlign=bottom;endArrow=open;dashed=1;endSize=8;edgeStyle=elbowEdgeStyle;elbow=vertical;curved=0;rounded=0;exitX=0.5;exitY=0;exitDx=0;exitDy=0;" edge="1" parent="1" source="q9EmKfXzJTqXkolpjUYO-2">
          <mxGeometry relative="1" as="geometry">
            <mxPoint x="410" y="-1130" as="sourcePoint" />
            <mxPoint x="1000" y="-1090" as="targetPoint" />
            <Array as="points">
              <mxPoint x="570" y="-1090" />
              <mxPoint x="550" y="-1110" />
            </Array>
          </mxGeometry>
        </mxCell>
        <mxCell id="Gjvgy17NtuuGxw5-M8Zm-2" value="1" style="text;html=1;strokeColor=none;fillColor=none;align=center;verticalAlign=middle;whiteSpace=wrap;rounded=0;" vertex="1" parent="1">
          <mxGeometry x="2110" y="-140" width="60" height="30" as="geometry" />
        </mxCell>
        <mxCell id="Gjvgy17NtuuGxw5-M8Zm-3" value="1" style="text;html=1;strokeColor=none;fillColor=none;align=center;verticalAlign=middle;whiteSpace=wrap;rounded=0;" vertex="1" parent="1">
          <mxGeometry x="2130" y="-22" width="60" height="30" as="geometry" />
        </mxCell>
        <mxCell id="Gjvgy17NtuuGxw5-M8Zm-4" value="envia" style="text;html=1;strokeColor=none;fillColor=none;align=center;verticalAlign=middle;whiteSpace=wrap;rounded=0;" vertex="1" parent="1">
          <mxGeometry x="2170" y="-260" width="60" height="30" as="geometry" />
        </mxCell>
        <mxCell id="Gjvgy17NtuuGxw5-M8Zm-5" value="1" style="text;html=1;strokeColor=none;fillColor=none;align=center;verticalAlign=middle;whiteSpace=wrap;rounded=0;" vertex="1" parent="1">
          <mxGeometry x="2120" y="-200" width="60" height="30" as="geometry" />
        </mxCell>
        <mxCell id="Gjvgy17NtuuGxw5-M8Zm-6" value="recibe" style="text;html=1;strokeColor=none;fillColor=none;align=center;verticalAlign=middle;whiteSpace=wrap;rounded=0;" vertex="1" parent="1">
          <mxGeometry x="2170" y="-200" width="60" height="30" as="geometry" />
        </mxCell>
        <mxCell id="Gjvgy17NtuuGxw5-M8Zm-10" value="" style="endArrow=none;html=1;rounded=0;entryX=0;entryY=0.5;entryDx=0;entryDy=0;exitX=1;exitY=0.5;exitDx=0;exitDy=0;" edge="1" parent="1" source="1UPbLHoVu07urVqdPmsa-128" target="1UPbLHoVu07urVqdPmsa-157">
          <mxGeometry width="50" height="50" relative="1" as="geometry">
            <mxPoint x="2000" y="-190" as="sourcePoint" />
            <mxPoint x="2050" y="-240" as="targetPoint" />
          </mxGeometry>
        </mxCell>
        <mxCell id="Gjvgy17NtuuGxw5-M8Zm-11" value="" style="endArrow=none;html=1;rounded=0;entryX=0;entryY=0.5;entryDx=0;entryDy=0;exitX=1;exitY=0.5;exitDx=0;exitDy=0;" edge="1" parent="1">
          <mxGeometry width="50" height="50" relative="1" as="geometry">
            <mxPoint x="2130" y="-204.5" as="sourcePoint" />
            <mxPoint x="2270" y="-205.5" as="targetPoint" />
          </mxGeometry>
        </mxCell>
        <mxCell id="Gjvgy17NtuuGxw5-M8Zm-12" value="0...*" style="text;html=1;strokeColor=none;fillColor=none;align=center;verticalAlign=middle;whiteSpace=wrap;rounded=0;" vertex="1" parent="1">
          <mxGeometry x="2230" y="-200" width="60" height="30" as="geometry" />
        </mxCell>
        <mxCell id="my_kkLxKHLTlXuXmod3Y-14" style="rounded=0;orthogonalLoop=1;jettySize=auto;html=1;exitX=0.5;exitY=0;exitDx=0;exitDy=0;entryX=0.75;entryY=1;entryDx=0;entryDy=0;dashed=1;" edge="1" parent="1" source="my_kkLxKHLTlXuXmod3Y-1" target="1UPbLHoVu07urVqdPmsa-1">
          <mxGeometry relative="1" as="geometry" />
        </mxCell>
        <mxCell id="my_kkLxKHLTlXuXmod3Y-1" value="Control_Usuario" style="swimlane;fontStyle=0;childLayout=stackLayout;horizontal=1;startSize=26;fillColor=none;horizontalStack=0;resizeParent=1;resizeParentMax=0;resizeLast=0;collapsible=1;marginBottom=0;whiteSpace=wrap;html=1;" vertex="1" parent="1">
          <mxGeometry x="1280" y="-606" width="170" height="210" as="geometry" />
        </mxCell>
        <mxCell id="my_kkLxKHLTlXuXmod3Y-33" value="+Crear_mensaje_privado()        " style="text;strokeColor=none;fillColor=none;align=left;verticalAlign=top;spacingLeft=4;spacingRight=4;overflow=hidden;rotatable=0;points=[[0,0.5],[1,0.5]];portConstraint=eastwest;whiteSpace=wrap;html=1;" vertex="1" parent="my_kkLxKHLTlXuXmod3Y-1">
          <mxGeometry y="26" width="170" height="26" as="geometry" />
        </mxCell>
        <mxCell id="my_kkLxKHLTlXuXmod3Y-2" value="+InterfazUsuario()        " style="text;strokeColor=none;fillColor=none;align=left;verticalAlign=top;spacingLeft=4;spacingRight=4;overflow=hidden;rotatable=0;points=[[0,0.5],[1,0.5]];portConstraint=eastwest;whiteSpace=wrap;html=1;" vertex="1" parent="my_kkLxKHLTlXuXmod3Y-1">
          <mxGeometry y="52" width="170" height="26" as="geometry" />
        </mxCell>
        <mxCell id="my_kkLxKHLTlXuXmod3Y-15" value="+registrarUsuario()        " style="text;strokeColor=none;fillColor=none;align=left;verticalAlign=top;spacingLeft=4;spacingRight=4;overflow=hidden;rotatable=0;points=[[0,0.5],[1,0.5]];portConstraint=eastwest;whiteSpace=wrap;html=1;" vertex="1" parent="my_kkLxKHLTlXuXmod3Y-1">
          <mxGeometry y="78" width="170" height="26" as="geometry" />
        </mxCell>
        <mxCell id="my_kkLxKHLTlXuXmod3Y-22" value="+EliminarUsuario()        " style="text;strokeColor=none;fillColor=none;align=left;verticalAlign=top;spacingLeft=4;spacingRight=4;overflow=hidden;rotatable=0;points=[[0,0.5],[1,0.5]];portConstraint=eastwest;whiteSpace=wrap;html=1;" vertex="1" parent="my_kkLxKHLTlXuXmod3Y-1">
          <mxGeometry y="104" width="170" height="26" as="geometry" />
        </mxCell>
        <mxCell id="1UPbLHoVu07urVqdPmsa-144" value="+seguirUsuario()" style="text;strokeColor=none;fillColor=none;align=left;verticalAlign=top;spacingLeft=4;spacingRight=4;overflow=hidden;rotatable=0;points=[[0,0.5],[1,0.5]];portConstraint=eastwest;whiteSpace=wrap;html=1;" vertex="1" parent="my_kkLxKHLTlXuXmod3Y-1">
          <mxGeometry y="130" width="170" height="30" as="geometry" />
        </mxCell>
        <mxCell id="my_kkLxKHLTlXuXmod3Y-21" value="+ModificarDatosUsuario()        " style="text;strokeColor=none;fillColor=none;align=left;verticalAlign=top;spacingLeft=4;spacingRight=4;overflow=hidden;rotatable=0;points=[[0,0.5],[1,0.5]];portConstraint=eastwest;whiteSpace=wrap;html=1;" vertex="1" parent="my_kkLxKHLTlXuXmod3Y-1">
          <mxGeometry y="160" width="170" height="50" as="geometry" />
        </mxCell>
        <mxCell id="my_kkLxKHLTlXuXmod3Y-39" style="rounded=0;orthogonalLoop=1;jettySize=auto;html=1;exitX=0.5;exitY=0;exitDx=0;exitDy=0;entryX=1;entryY=1;entryDx=0;entryDy=0;dashed=1;" edge="1" parent="1" source="my_kkLxKHLTlXuXmod3Y-24" target="1UPbLHoVu07urVqdPmsa-1">
          <mxGeometry relative="1" as="geometry">
            <mxPoint x="1160.0000000000002" y="-770" as="targetPoint" />
          </mxGeometry>
        </mxCell>
        <mxCell id="my_kkLxKHLTlXuXmod3Y-24" value="Control_Mensaje_Publico" style="swimlane;fontStyle=0;childLayout=stackLayout;horizontal=1;startSize=26;fillColor=none;horizontalStack=0;resizeParent=1;resizeParentMax=0;resizeLast=0;collapsible=1;marginBottom=0;whiteSpace=wrap;html=1;" vertex="1" parent="1">
          <mxGeometry x="1490" y="-607" width="160" height="158" as="geometry" />
        </mxCell>
        <mxCell id="my_kkLxKHLTlXuXmod3Y-25" value="+Crear_publicacion()        " style="text;strokeColor=none;fillColor=none;align=left;verticalAlign=top;spacingLeft=4;spacingRight=4;overflow=hidden;rotatable=0;points=[[0,0.5],[1,0.5]];portConstraint=eastwest;whiteSpace=wrap;html=1;" vertex="1" parent="my_kkLxKHLTlXuXmod3Y-24">
          <mxGeometry y="26" width="160" height="26" as="geometry" />
        </mxCell>
        <mxCell id="my_kkLxKHLTlXuXmod3Y-26" value="+Editar_publicacion()        " style="text;strokeColor=none;fillColor=none;align=left;verticalAlign=top;spacingLeft=4;spacingRight=4;overflow=hidden;rotatable=0;points=[[0,0.5],[1,0.5]];portConstraint=eastwest;whiteSpace=wrap;html=1;" vertex="1" parent="my_kkLxKHLTlXuXmod3Y-24">
          <mxGeometry y="52" width="160" height="26" as="geometry" />
        </mxCell>
        <mxCell id="my_kkLxKHLTlXuXmod3Y-27" value="+Eliminar_publicacion()        " style="text;strokeColor=none;fillColor=none;align=left;verticalAlign=top;spacingLeft=4;spacingRight=4;overflow=hidden;rotatable=0;points=[[0,0.5],[1,0.5]];portConstraint=eastwest;whiteSpace=wrap;html=1;" vertex="1" parent="my_kkLxKHLTlXuXmod3Y-24">
          <mxGeometry y="78" width="160" height="26" as="geometry" />
        </mxCell>
        <mxCell id="my_kkLxKHLTlXuXmod3Y-28" value="+ver_publicacion()        " style="text;strokeColor=none;fillColor=none;align=left;verticalAlign=top;spacingLeft=4;spacingRight=4;overflow=hidden;rotatable=0;points=[[0,0.5],[1,0.5]];portConstraint=eastwest;whiteSpace=wrap;html=1;" vertex="1" parent="my_kkLxKHLTlXuXmod3Y-24">
          <mxGeometry y="104" width="160" height="26" as="geometry" />
        </mxCell>
        <mxCell id="my_kkLxKHLTlXuXmod3Y-49" value="+Republicar()" style="text;strokeColor=none;fillColor=none;align=left;verticalAlign=top;spacingLeft=4;spacingRight=4;overflow=hidden;rotatable=0;points=[[0,0.5],[1,0.5]];portConstraint=eastwest;whiteSpace=wrap;html=1;" vertex="1" parent="my_kkLxKHLTlXuXmod3Y-24">
          <mxGeometry y="130" width="160" height="28" as="geometry" />
        </mxCell>
        <mxCell id="my_kkLxKHLTlXuXmod3Y-32" value="Control_mensaje_privado" style="swimlane;fontStyle=0;childLayout=stackLayout;horizontal=1;startSize=26;fillColor=none;horizontalStack=0;resizeParent=1;resizeParentMax=0;resizeLast=0;collapsible=1;marginBottom=0;whiteSpace=wrap;html=1;" vertex="1" parent="1">
          <mxGeometry x="1070" y="-613" width="180" height="78" as="geometry" />
        </mxCell>
        <mxCell id="my_kkLxKHLTlXuXmod3Y-34" value="+Editar_mensaje_privado()        " style="text;strokeColor=none;fillColor=none;align=left;verticalAlign=top;spacingLeft=4;spacingRight=4;overflow=hidden;rotatable=0;points=[[0,0.5],[1,0.5]];portConstraint=eastwest;whiteSpace=wrap;html=1;" vertex="1" parent="my_kkLxKHLTlXuXmod3Y-32">
          <mxGeometry y="26" width="180" height="26" as="geometry" />
        </mxCell>
        <mxCell id="my_kkLxKHLTlXuXmod3Y-35" value="+Eliminar_mensaje_privado()        " style="text;strokeColor=none;fillColor=none;align=left;verticalAlign=top;spacingLeft=4;spacingRight=4;overflow=hidden;rotatable=0;points=[[0,0.5],[1,0.5]];portConstraint=eastwest;whiteSpace=wrap;html=1;" vertex="1" parent="my_kkLxKHLTlXuXmod3Y-32">
          <mxGeometry y="52" width="180" height="26" as="geometry" />
        </mxCell>
        <mxCell id="_UQvhlnsIPJq8ZYPG_fb-3" style="rounded=0;orthogonalLoop=1;jettySize=auto;html=1;exitX=0.75;exitY=0;exitDx=0;exitDy=0;entryX=0.25;entryY=1;entryDx=0;entryDy=0;dashed=1;" edge="1" parent="1" source="my_kkLxKHLTlXuXmod3Y-40" target="1UPbLHoVu07urVqdPmsa-1">
          <mxGeometry relative="1" as="geometry" />
        </mxCell>
        <mxCell id="my_kkLxKHLTlXuXmod3Y-40" value="Control_comentarios" style="swimlane;fontStyle=0;childLayout=stackLayout;horizontal=1;startSize=26;fillColor=none;horizontalStack=0;resizeParent=1;resizeParentMax=0;resizeLast=0;collapsible=1;marginBottom=0;whiteSpace=wrap;html=1;" vertex="1" parent="1">
          <mxGeometry x="910" y="-613" width="140" height="104" as="geometry" />
        </mxCell>
        <mxCell id="my_kkLxKHLTlXuXmod3Y-45" value="+comentar()        " style="text;strokeColor=none;fillColor=none;align=left;verticalAlign=top;spacingLeft=4;spacingRight=4;overflow=hidden;rotatable=0;points=[[0,0.5],[1,0.5]];portConstraint=eastwest;whiteSpace=wrap;html=1;" vertex="1" parent="my_kkLxKHLTlXuXmod3Y-40">
          <mxGeometry y="26" width="140" height="26" as="geometry" />
        </mxCell>
        <mxCell id="my_kkLxKHLTlXuXmod3Y-46" value="+editar_comentario()        " style="text;strokeColor=none;fillColor=none;align=left;verticalAlign=top;spacingLeft=4;spacingRight=4;overflow=hidden;rotatable=0;points=[[0,0.5],[1,0.5]];portConstraint=eastwest;whiteSpace=wrap;html=1;" vertex="1" parent="my_kkLxKHLTlXuXmod3Y-40">
          <mxGeometry y="52" width="140" height="26" as="geometry" />
        </mxCell>
        <mxCell id="my_kkLxKHLTlXuXmod3Y-41" value="+borrar_comentario()        " style="text;strokeColor=none;fillColor=none;align=left;verticalAlign=top;spacingLeft=4;spacingRight=4;overflow=hidden;rotatable=0;points=[[0,0.5],[1,0.5]];portConstraint=eastwest;whiteSpace=wrap;html=1;" vertex="1" parent="my_kkLxKHLTlXuXmod3Y-40">
          <mxGeometry y="78" width="140" height="26" as="geometry" />
        </mxCell>
        <mxCell id="EJdMXx1NA9mP5QPKAWZK-1" value="Control_likes" style="swimlane;fontStyle=0;childLayout=stackLayout;horizontal=1;startSize=26;fillColor=none;horizontalStack=0;resizeParent=1;resizeParentMax=0;resizeLast=0;collapsible=1;marginBottom=0;whiteSpace=wrap;html=1;" vertex="1" parent="1">
          <mxGeometry x="700" y="-607" width="170" height="78" as="geometry" />
        </mxCell>
        <mxCell id="EJdMXx1NA9mP5QPKAWZK-2" value="+Poner_like()" style="text;strokeColor=none;fillColor=none;align=left;verticalAlign=top;spacingLeft=4;spacingRight=4;overflow=hidden;rotatable=0;points=[[0,0.5],[1,0.5]];portConstraint=eastwest;whiteSpace=wrap;html=1;" vertex="1" parent="EJdMXx1NA9mP5QPKAWZK-1">
          <mxGeometry y="26" width="170" height="26" as="geometry" />
        </mxCell>
        <mxCell id="EJdMXx1NA9mP5QPKAWZK-3" value="+Quitar _like()" style="text;strokeColor=none;fillColor=none;align=left;verticalAlign=top;spacingLeft=4;spacingRight=4;overflow=hidden;rotatable=0;points=[[0,0.5],[1,0.5]];portConstraint=eastwest;whiteSpace=wrap;html=1;" vertex="1" parent="EJdMXx1NA9mP5QPKAWZK-1">
          <mxGeometry y="52" width="170" height="26" as="geometry" />
        </mxCell>
        <mxCell id="_UQvhlnsIPJq8ZYPG_fb-4" style="rounded=0;orthogonalLoop=1;jettySize=auto;html=1;entryX=0;entryY=1;entryDx=0;entryDy=0;dashed=1;" edge="1" parent="1" target="1UPbLHoVu07urVqdPmsa-1">
          <mxGeometry relative="1" as="geometry">
            <mxPoint x="800" y="-610" as="sourcePoint" />
            <Array as="points" />
          </mxGeometry>
        </mxCell>
        <mxCell id="jJyeZY-O7vn-Lm1w7ied-2" value="publica" style="text;html=1;strokeColor=none;fillColor=none;align=center;verticalAlign=middle;whiteSpace=wrap;rounded=0;" vertex="1" parent="1">
          <mxGeometry x="2050" y="-70" width="60" height="30" as="geometry" />
        </mxCell>
        <mxCell id="jJyeZY-O7vn-Lm1w7ied-3" value="1" style="text;html=1;strokeColor=none;fillColor=none;align=center;verticalAlign=middle;whiteSpace=wrap;rounded=0;" vertex="1" parent="1">
          <mxGeometry x="2038" y="-110" width="60" height="30" as="geometry" />
        </mxCell>
        <mxCell id="jJyeZY-O7vn-Lm1w7ied-4" value="1" style="text;html=1;strokeColor=none;fillColor=none;align=center;verticalAlign=middle;whiteSpace=wrap;rounded=0;" vertex="1" parent="1">
          <mxGeometry x="2030" y="-22" width="60" height="30" as="geometry" />
        </mxCell>
        <mxCell id="45cz8oAgrBLonaPTnXa3-1" value="+verificarCredenciales()" style="text;strokeColor=none;fillColor=none;align=left;verticalAlign=top;spacingLeft=4;spacingRight=4;overflow=hidden;rotatable=0;points=[[0,0.5],[1,0.5]];portConstraint=eastwest;whiteSpace=wrap;html=1;" vertex="1" parent="1">
          <mxGeometry x="1280" y="-420" width="170" height="20" as="geometry" />
        </mxCell>
        <mxCell id="jWGyWjb4thajebp0eFQk-1" value="Seguriada" style="swimlane;fontStyle=0;childLayout=stackLayout;horizontal=1;startSize=26;fillColor=none;horizontalStack=0;resizeParent=1;resizeParentMax=0;resizeLast=0;collapsible=1;marginBottom=0;whiteSpace=wrap;html=1;" vertex="1" parent="1">
          <mxGeometry x="-150" y="-578" width="140" height="52" as="geometry" />
        </mxCell>
        <mxCell id="jWGyWjb4thajebp0eFQk-2" value="" style="html=1;verticalAlign=bottom;endArrow=open;dashed=1;endSize=8;elbow=vertical;rounded=0;exitX=0.5;exitY=0;exitDx=0;exitDy=0;" edge="1" parent="1">
          <mxGeometry x="0.0004" relative="1" as="geometry">
            <mxPoint x="-60" y="-578" as="sourcePoint" />
            <mxPoint x="270" y="-760" as="targetPoint" />
            <mxPoint as="offset" />
          </mxGeometry>
        </mxCell>
      </root>
    </mxGraphModel>
  </diagram>
</mxfile>
